<svg width="88" height="88" viewBox="0 0 88 88" fill="none" xmlns="http://www.w3.org/2000/svg">
<path d="M66.5951 19.5605C73.7073 19.5605 79.473 25.3263 79.473 32.4385C79.4728 39.5505 73.7071 45.3154 66.5951 45.3154H39.2054C32.0934 45.3154 26.3277 39.5505 26.3275 32.4385C26.3275 25.3263 32.0933 19.5605 39.2054 19.5605H66.5951Z" fill="#CCE7FF"/>
<mask id="path-2-inside-1_271_1715" fill="white">
<path d="M55.5469 36.0326C63.8513 36.0328 70.583 42.7652 70.583 51.0697C70.5829 59.3741 63.8512 66.1056 55.5469 66.1058H32.9805L29.582 71.9916C28.9501 73.0861 27.3702 73.0861 26.7383 71.9916L23.3389 66.1029C15.1382 65.9824 8.52747 59.299 8.52734 51.0697C8.52734 42.7651 15.2598 36.0326 23.5645 36.0326H55.5469Z"/>
</mask>
<path d="M55.5469 36.0326C63.8513 36.0328 70.583 42.7652 70.583 51.0697C70.5829 59.3741 63.8512 66.1056 55.5469 66.1058H32.9805L29.582 71.9916C28.9501 73.0861 27.3702 73.0861 26.7383 71.9916L23.3389 66.1029C15.1382 65.9824 8.52747 59.299 8.52734 51.0697C8.52734 42.7651 15.2598 36.0326 23.5645 36.0326H55.5469Z" fill="url(#paint0_linear_271_1715)"/>
<path d="M55.5469 36.0326L55.5469 35.3659H55.5469V36.0326ZM70.583 51.0697L71.2497 51.0697V51.0697H70.583ZM55.5469 66.1058V66.7725H55.5469L55.5469 66.1058ZM32.9805 66.1058V65.4392H32.5956L32.4031 65.7725L32.9805 66.1058ZM29.582 71.9916L29.0047 71.6582L29.0047 71.6582L29.582 71.9916ZM26.7383 71.9916L26.1609 72.3249L26.1609 72.3249L26.7383 71.9916ZM23.3389 66.1029L23.9162 65.7696L23.727 65.4419L23.3487 65.4363L23.3389 66.1029ZM8.52734 51.0697H7.86068V51.0697L8.52734 51.0697ZM55.5469 36.0326L55.5469 36.6993C63.4831 36.6995 69.9163 43.1334 69.9163 51.0697H70.583H71.2497C71.2497 42.3971 64.2195 35.3662 55.5469 35.3659L55.5469 36.0326ZM70.583 51.0697L69.9163 51.0697C69.9162 59.0059 63.483 65.4389 55.5469 65.4392L55.5469 66.1058L55.5469 66.7725C64.2194 66.7723 71.2495 59.7423 71.2497 51.0697L70.583 51.0697ZM55.5469 66.1058V65.4392H32.9805V66.1058V66.7725H55.5469V66.1058ZM32.9805 66.1058L32.4031 65.7725L29.0047 71.6582L29.582 71.9916L30.1594 72.3249L33.5578 66.4392L32.9805 66.1058ZM29.582 71.9916L29.0047 71.6582C28.6294 72.3083 27.6909 72.3083 27.3156 71.6582L26.7383 71.9916L26.1609 72.3249C27.0494 73.8638 29.2709 73.8638 30.1594 72.3249L29.582 71.9916ZM26.7383 71.9916L27.3156 71.6583L23.9162 65.7696L23.3389 66.1029L22.7615 66.4362L26.1609 72.3249L26.7383 71.9916ZM23.3389 66.1029L23.3487 65.4363C15.5117 65.3212 9.19413 58.9339 9.19401 51.0697L8.52734 51.0697L7.86068 51.0697C7.86081 59.664 14.7648 66.6437 23.3291 66.7695L23.3389 66.1029ZM8.52734 51.0697H9.19401C9.19401 43.1333 15.628 36.6993 23.5645 36.6993V36.0326V35.3659C14.8916 35.3659 7.86068 42.3969 7.86068 51.0697H8.52734ZM23.5645 36.0326V36.6993H55.5469V36.0326V35.3659H23.5645V36.0326Z" fill="url(#paint1_linear_271_1715)" mask="url(#path-2-inside-1_271_1715)"/>
<circle cx="39.5556" cy="50.3427" r="3.04811" fill="#CCE7FF"/>
<circle cx="27.6774" cy="50.3427" r="3.04811" fill="#CCE7FF"/>
<circle cx="51.4336" cy="50.3427" r="3.04811" fill="#CCE7FF"/>
<defs>
<linearGradient id="paint0_linear_271_1715" x1="68.9485" y1="10.3502" x2="1.86256" y2="117.533" gradientUnits="userSpaceOnUse">
<stop stop-color="#BDF3FF"/>
<stop offset="0.430907" stop-color="#4FAAFF"/>
<stop offset="1" stop-color="#A2D3FF"/>
</linearGradient>
<linearGradient id="paint1_linear_271_1715" x1="39.5552" y1="36.0326" x2="39.5552" y2="72.8124" gradientUnits="userSpaceOnUse">
<stop stop-color="#EAF5FF"/>
<stop offset="1" stop-color="#4FAAFF"/>
</linearGradient>
</defs>
</svg>
