<svg width="88" height="88" viewBox="0 0 88 88" fill="none" xmlns="http://www.w3.org/2000/svg">
<path d="M9.15442 52.8188C9.15442 53.6681 9.49181 54.4826 10.0924 55.0832C10.6929 55.6838 11.5075 56.0211 12.3568 56.0211H60.8498C61.6991 56.0211 62.5137 55.6838 63.1142 55.0832C63.7148 54.4826 64.0522 53.6681 64.0522 52.8188V28.5723H9.15442V52.8188Z" fill="url(#paint0_linear_271_1738)"/>
<path d="M64.0522 22.625C64.0522 21.7757 63.7149 20.9612 63.1143 20.3606C62.5137 19.7601 61.6992 19.4227 60.8499 19.4227H31.6671L26.1774 15.7628H12.3568C11.5075 15.7628 10.693 16.1002 10.0924 16.7008C9.49187 17.3013 9.15448 18.1159 9.15448 18.9652V28.5723H64.0522V22.625Z" fill="#CCE7FF"/>
<path d="M57.9711 23.5896C61.2122 23.5897 64.1386 24.8384 66.2319 27.0984C68.351 29.3864 69.3886 32.4716 69.143 35.7927C68.6519 42.4443 63.6071 47.7818 57.9711 47.782C52.3348 47.782 47.2807 42.443 46.7973 35.7908C46.5548 32.4368 47.5873 29.346 49.6918 27.0769C51.7743 24.8321 54.7107 23.5896 57.9711 23.5896Z" fill="url(#paint1_linear_271_1738)" stroke="url(#paint2_linear_271_1738)" stroke-width="0.666667"/>
<path d="M57.9705 51.0941C62.8177 51.0941 67.5345 52.5728 71.2527 55.2484C75.4337 58.2597 78.0915 62.547 78.9441 67.6566C79.1182 68.6972 78.9069 69.7129 78.3816 70.4789L78.2722 70.6283C77.9987 70.9825 77.6566 71.2648 77.2732 71.4554C76.8901 71.6459 76.4738 71.7415 76.0544 71.7357H39.8865C39.4671 71.7416 39.0509 71.6458 38.6677 71.4554C38.3323 71.2888 38.0281 71.0528 37.7742 70.7592L37.6687 70.6293C37.0643 69.8487 36.8101 68.7675 36.9958 67.6576C37.8485 62.548 40.5072 58.2608 44.6882 55.2484C48.4063 52.5718 53.1231 51.0941 57.9705 51.0941Z" fill="url(#paint3_linear_271_1738)" stroke="url(#paint4_linear_271_1738)" stroke-width="0.666667"/>
<defs>
<linearGradient id="paint0_linear_271_1738" x1="46.4082" y1="-2.77767" x2="6.97821" y2="77.8548" gradientUnits="userSpaceOnUse">
<stop stop-color="#BDF3FF"/>
<stop offset="0.384615" stop-color="#92CAFF"/>
<stop offset="1" stop-color="#F0F8FF"/>
</linearGradient>
<linearGradient id="paint1_linear_271_1738" x1="68.9041" y1="5.89843" x2="18.9072" y2="49.8601" gradientUnits="userSpaceOnUse">
<stop stop-color="#BDF3FF"/>
<stop offset="0.430907" stop-color="#4FAAFF"/>
<stop offset="1" stop-color="#A2D3FF"/>
</linearGradient>
<linearGradient id="paint2_linear_271_1738" x1="57.9706" y1="23.2566" x2="57.9706" y2="48.1153" gradientUnits="userSpaceOnUse">
<stop stop-color="#EAF5FF"/>
<stop offset="1" stop-color="#4FAAFF"/>
</linearGradient>
<linearGradient id="paint3_linear_271_1738" x1="78.2119" y1="35.8825" x2="42.5849" y2="103.543" gradientUnits="userSpaceOnUse">
<stop stop-color="#BDF3FF"/>
<stop offset="0.430907" stop-color="#4FAAFF"/>
<stop offset="1" stop-color="#A2D3FF"/>
</linearGradient>
<linearGradient id="paint4_linear_271_1738" x1="57.9704" y1="50.7611" x2="57.9704" y2="72.0689" gradientUnits="userSpaceOnUse">
<stop stop-color="#EAF5FF"/>
<stop offset="1" stop-color="#4FAAFF"/>
</linearGradient>
</defs>
</svg>
