<svg width="275" height="67" viewBox="0 0 275 67" fill="none" xmlns="http://www.w3.org/2000/svg">
<g clip-path="url(#clip0_104_486)">
<path d="M66.241 65.8348H42.8446V59.352H51.6507L46.8902 46.6953H18.7333L13.6641 59.352H23.1851V65.8348H0V59.352H6.17404L27.7507 6.48274H17.2223V0H35.9557L59.5632 59.352H66.241V65.8348ZM44.778 40.9274L33.4373 10.7396H32.8361L20.9917 40.9274H44.7943H44.778Z" fill="#292929"/>
<path d="M93.7966 65.8348H69.7828V59.352H78.0853V6.48274H69.7828V0H93.7966V6.48274H85.5916V59.352H93.7966V65.8348Z" fill="#292929"/>
<path d="M135.13 53.6816C133.912 62.4552 129.151 66.8421 120.849 66.8421C116.332 66.8421 112.855 65.5585 110.467 62.9914C108.062 60.4243 106.876 56.9473 106.876 52.5605V26.4346H99.5809V20.7642H106.876V6.28772H113.96V20.7805H131.588V26.4508H113.96V51.6669C113.96 54.364 114.545 56.5412 115.731 58.1984C116.917 59.8557 118.85 60.6843 121.548 60.6843C123.302 60.6843 124.943 60.1481 126.454 59.0595C127.982 57.9872 129.07 55.6151 129.752 51.9756L135.114 53.6979L135.13 53.6816Z" fill="#292929"/>
<path d="M183.84 43.2508C183.84 50.0748 181.809 55.7126 177.764 60.1644C173.718 64.6162 168.21 66.8422 161.256 66.8422C154.302 66.8422 149.087 64.6812 145.204 60.3594C141.321 56.0376 139.387 50.4647 139.387 43.6408C139.387 36.8168 141.272 31.4714 145.058 26.7759C148.843 22.0804 154.384 19.7407 161.662 19.7407C168.941 19.7407 174.563 22.0479 178.267 26.6784C181.988 31.3089 183.84 36.8331 183.84 43.2346V43.2508ZM176.35 43.1533C176.35 38.0191 175.05 33.8598 172.451 30.6428C169.851 27.442 166.179 25.8335 161.468 25.8335C156.756 25.8335 153.116 27.4908 150.582 30.789C148.047 34.1035 146.78 38.2466 146.78 43.2508C146.78 48.255 148.031 52.3332 150.533 55.7126C153.035 59.0921 156.675 60.7818 161.468 60.7818C166.261 60.7818 169.949 59.1084 172.516 55.7614C175.083 52.4144 176.366 48.2063 176.366 43.1533H176.35Z" fill="#292929"/>
<path d="M274.095 65.8349H252.518V60.067H259.099V39.0915C259.099 34.2335 258.14 30.8053 256.207 28.8069C254.289 26.8084 251.836 25.8173 248.863 25.8173C244.736 25.8173 241.568 27.3771 239.342 30.4804C237.116 33.5836 235.962 36.5569 235.897 39.4002V60.067H243.696V65.8349H222.217V60.067H228.7V39.0915C228.7 34.1685 227.757 30.7241 225.856 28.7581C223.972 26.7922 221.567 25.8173 218.659 25.8173C214.467 25.8173 211.282 27.3283 209.089 30.3179C206.895 33.3237 205.726 36.2807 205.596 39.189V60.0508H213.898V65.8186H190.599V60.0508H198.495V26.516H190.485V20.7481H205.579V29.1481C207.058 26.451 209.056 24.2251 211.558 22.4703C214.061 20.7156 217.099 19.8383 220.673 19.8383C224.248 19.8383 227.237 20.7156 229.837 22.4703C232.436 24.2251 234.207 26.9546 235.15 30.6753C236.498 27.5071 238.513 24.9075 241.178 22.8765C243.842 20.8456 247.14 19.8383 251.056 19.8383C255.378 19.8383 258.969 21.1868 261.844 23.8839C264.72 26.581 266.15 30.9353 266.15 36.9468V60.0345H274.046V65.8024L274.095 65.8349Z" fill="#292929"/>
</g>
<defs>
<clipPath id="clip0_104_486">
<rect width="274.095" height="66.8584" fill="white"/>
</clipPath>
</defs>
</svg>
