<svg width="107" height="26" viewBox="0 0 107 26" fill="none" xmlns="http://www.w3.org/2000/svg">
<g clip-path="url(#clip0_201_814)">
<path d="M25.7599 25.6019H16.6615V23.0809H20.086L18.2348 18.1589H7.28505L5.31373 23.0809H9.01628V25.6019H0V23.0809H2.40097L10.7917 2.52102H6.69745V0H13.9825L23.1631 23.0809H25.7599V25.6019ZM17.4134 15.9159L13.0032 4.17643H12.7694L8.16331 15.9159H17.4197H17.4134Z" fill="#4FAAFF"/>
<path d="M36.4758 25.6019H27.1373V23.0809H30.366V2.52102H27.1373V0H36.4758V2.52102H33.2851V23.0809H36.4758V25.6019Z" fill="#4FAAFF"/>
<path d="M52.5498 20.8758C52.0759 24.2877 50.2246 25.9937 46.9959 25.9937C45.2394 25.9937 43.8873 25.4945 42.9585 24.4962C42.0234 23.4979 41.5622 22.1458 41.5622 20.4398V10.2799H38.7252V8.07484H41.5622V2.44519H44.317V8.08116H51.1724V10.2863H44.317V20.0923C44.317 21.1412 44.5444 21.9878 45.0057 22.6323C45.4669 23.2768 46.2188 23.599 47.2676 23.599C47.95 23.599 48.5882 23.3905 49.1758 22.9672C49.7697 22.5502 50.193 21.6277 50.4584 20.2124L52.5434 20.8821L52.5498 20.8758Z" fill="#4FAAFF"/>
<path d="M71.4922 16.8195C71.4922 19.4732 70.7024 21.6656 69.1291 23.3969C67.5559 25.1281 65.4139 25.9937 62.7097 25.9937C60.0054 25.9937 57.9773 25.1534 56.4672 23.4727C54.9571 21.792 54.2052 19.6248 54.2052 16.9711C54.2052 14.3174 54.9381 12.2387 56.4103 10.4127C57.8825 8.58666 60.037 7.67682 62.8677 7.67682C65.6983 7.67682 67.8844 8.57402 69.325 10.3748C70.7719 12.1755 71.4922 14.3237 71.4922 16.8132V16.8195ZM68.5794 16.7816C68.5794 14.785 68.074 13.1675 67.063 11.9164C66.0521 10.6717 64.6242 10.0462 62.7918 10.0462C60.9595 10.0462 59.5442 10.6907 58.5585 11.9733C57.5729 13.2622 57.08 14.8734 57.08 16.8195C57.08 18.7655 57.5666 20.3514 58.5396 21.6656C59.5126 22.9799 60.9279 23.637 62.7918 23.637C64.6557 23.637 66.09 22.9862 67.0883 21.6846C68.0866 20.383 68.5858 18.7466 68.5858 16.7816H68.5794Z" fill="#4FAAFF"/>
<path d="M106.591 25.602H98.1997V23.359H100.759V15.202C100.759 13.3128 100.386 11.9796 99.634 11.2024C98.8884 10.4253 97.9344 10.0399 96.7781 10.0399C95.1733 10.0399 93.9412 10.6464 93.0756 11.8532C92.21 13.06 91.7614 14.2163 91.7361 15.322V23.359H94.7689V25.602H86.416V23.359H88.937V15.202C88.937 13.2875 88.5706 11.948 87.8313 11.1835C87.0984 10.419 86.1633 10.0399 85.0323 10.0399C83.4022 10.0399 82.1638 10.6275 81.3108 11.7901C80.4578 12.959 80.0029 14.1089 79.9524 15.2399V23.3526H83.181V25.5956H74.1205V23.3526H77.1912V10.3116H74.0763V8.06855H79.946V11.3351C80.521 10.2863 81.2982 9.42068 82.2712 8.73829C83.2442 8.05591 84.4258 7.71472 85.8158 7.71472C87.2058 7.71472 88.3684 8.05591 89.3793 8.73829C90.3903 9.42068 91.079 10.4822 91.4454 11.9291C91.9699 10.697 92.7533 9.68605 93.7895 8.89625C94.8258 8.10646 96.1084 7.71472 97.6311 7.71472C99.3118 7.71472 100.708 8.23914 101.826 9.28799C102.945 10.3368 103.501 12.0302 103.501 14.3679V23.3463H106.572V25.5893L106.591 25.602Z" fill="#4FAAFF"/>
</g>
<defs>
<clipPath id="clip0_201_814">
<rect width="106.591" height="26" fill="white"/>
</clipPath>
</defs>
</svg>
