<svg width="20" height="20" viewBox="0 0 20 20" fill="none" xmlns="http://www.w3.org/2000/svg">
<g clip-path="url(#clip0_316_1273)">
<path fill-rule="evenodd" clip-rule="evenodd" d="M2.8125 3.33887C2.56386 3.33887 2.3254 3.43764 2.14959 3.61345C1.97377 3.78927 1.875 4.02773 1.875 4.27637V14.9014C1.875 15.15 1.97377 15.3885 2.14959 15.5643C2.3254 15.7401 2.56386 15.8389 2.8125 15.8389H17.1875C17.4361 15.8389 17.6746 15.7401 17.8504 15.5643C18.0262 15.3885 18.125 15.15 18.125 14.9014V5.52637C18.125 5.27773 18.0262 5.03927 17.8504 4.86345C17.6746 4.68764 17.4361 4.58887 17.1875 4.58887H8.59805C8.16615 4.58886 7.74391 4.46099 7.38456 4.2214C7.38455 4.22139 7.38453 4.22138 7.38452 4.22137L6.29702 3.49637C6.14301 3.39368 5.96205 3.33888 5.77695 3.33887C5.77695 3.33887 5.77696 3.33887 5.77695 3.33887H2.8125ZM1.2657 2.72957C1.67594 2.31934 2.23234 2.08887 2.8125 2.08887H5.77695C6.20885 2.08888 6.63109 2.21674 6.99044 2.45634C6.99045 2.45635 6.99047 2.45636 6.99048 2.45637L8.07798 3.18137C8.23199 3.28406 8.41295 3.33886 8.59805 3.33887C8.59804 3.33887 8.59805 3.33887 8.59805 3.33887H17.1875C17.7677 3.33887 18.3241 3.56934 18.7343 3.97957C19.1445 4.38981 19.375 4.94621 19.375 5.52637V14.9014C19.375 15.4815 19.1445 16.0379 18.7343 16.4482C18.3241 16.8584 17.7677 17.0889 17.1875 17.0889H2.8125C2.23234 17.0889 1.67594 16.8584 1.2657 16.4482C0.855468 16.0379 0.625 15.4815 0.625 14.9014V4.27637C0.625 3.69621 0.855468 3.13981 1.2657 2.72957Z" fill="#697077"/>
<path d="M5.77695 3.33887C5.96205 3.33888 6.14301 3.39368 6.29702 3.49637L7.38452 4.22137C7.38453 4.22138 7.38455 4.22139 7.38456 4.2214C7.74391 4.46099 8.16615 4.58886 8.59805 4.58887H17.1875C17.4361 4.58887 17.6746 4.68764 17.8504 4.86345C18.0262 5.03927 18.125 5.27773 18.125 5.52637V14.9014C18.125 15.15 18.0262 15.3885 17.8504 15.5643C17.6746 15.7401 17.4361 15.8389 17.1875 15.8389H2.8125C2.56386 15.8389 2.3254 15.7401 2.14959 15.5643C1.97377 15.3885 1.875 15.15 1.875 14.9014V4.27637C1.875 4.02773 1.97377 3.78927 2.14959 3.61345C2.3254 3.43764 2.56386 3.33887 2.8125 3.33887H5.77695ZM5.77695 3.33887C5.77696 3.33887 5.77695 3.33887 5.77695 3.33887ZM8.59805 3.33887C8.41295 3.33886 8.23199 3.28406 8.07798 3.18137L6.99048 2.45637C6.99047 2.45636 6.99045 2.45635 6.99044 2.45634C6.63109 2.21674 6.20885 2.08888 5.77695 2.08887H2.8125C2.23234 2.08887 1.67594 2.31934 1.2657 2.72957C0.855468 3.13981 0.625 3.69621 0.625 4.27637V14.9014C0.625 15.4815 0.855468 16.0379 1.2657 16.4482C1.67594 16.8584 2.23234 17.0889 2.8125 17.0889H17.1875C17.7677 17.0889 18.3241 16.8584 18.7343 16.4482C19.1445 16.0379 19.375 15.4815 19.375 14.9014V5.52637C19.375 4.94621 19.1445 4.38981 18.7343 3.97957C18.3241 3.56934 17.7677 3.33887 17.1875 3.33887H8.59805ZM8.59805 3.33887C8.59804 3.33887 8.59805 3.33887 8.59805 3.33887Z" stroke="#697077" stroke-width="0.3" stroke-linecap="round" stroke-linejoin="round"/>
<path fill-rule="evenodd" clip-rule="evenodd" d="M0.625 7.08887C0.625 6.74369 0.904822 6.46387 1.25 6.46387H18.75C19.0952 6.46387 19.375 6.74369 19.375 7.08887C19.375 7.43405 19.0952 7.71387 18.75 7.71387H1.25C0.904822 7.71387 0.625 7.43405 0.625 7.08887Z" fill="#697077" stroke="#697077" stroke-width="0.3" stroke-linecap="round" stroke-linejoin="round"/>
</g>
<defs>
<clipPath id="clip0_316_1273">
<rect width="20" height="20" fill="white"/>
</clipPath>
</defs>
</svg>
