<svg width="45" height="45" viewBox="0 0 45 45" fill="none" xmlns="http://www.w3.org/2000/svg">
<path d="M36.495 9.83545V22.4995C36.495 26.9828 33.8352 31.0283 30.453 34.3198C27.4557 37.2368 24.1528 39.3004 22.4999 40.2466C20.8469 39.3004 17.5448 37.2365 14.5477 34.3198C11.1655 31.0283 8.50476 26.9829 8.50476 22.4995V9.83545L22.4999 4.58838L36.495 9.83545Z" fill="white" stroke="url(#paint0_linear_180_2365)" stroke-width="4.58828" stroke-miterlimit="1.30541" stroke-linecap="round"/>
<g opacity="0.72">
<mask id="mask0_180_2365" style="mask-type:alpha" maskUnits="userSpaceOnUse" x="6" y="2" width="33" height="41">
<path d="M21.8957 42.5402C22.2783 42.7503 22.7218 42.7503 23.1044 42.5402C26.0532 40.921 38.7893 33.3024 38.7893 22.4998V9.20776C38.7893 8.62965 38.4307 8.11218 37.8894 7.90919L22.987 2.32079C22.6731 2.20306 22.3271 2.20306 22.0131 2.32079L7.11072 7.90919C6.56942 8.11218 6.21082 8.62965 6.21082 9.20776V22.4998C6.21082 33.3024 18.9469 40.921 21.8957 42.5402Z" fill="white"/>
</mask>
<g mask="url(#mask0_180_2365)">
<rect x="22.7141" y="1.2041" width="24.2798" height="56.5623" fill="#FFF0E9"/>
</g>
</g>
<defs>
<linearGradient id="paint0_linear_180_2365" x1="12.5168" y1="-1.12469" x2="35.0577" y2="7.53856" gradientUnits="userSpaceOnUse">
<stop stop-color="#FF8952"/>
<stop offset="1" stop-color="#FFC5B5"/>
</linearGradient>
</defs>
</svg>
