<svg width="24" height="24" viewBox="0 0 24 24" fill="none" xmlns="http://www.w3.org/2000/svg">
<path fill-rule="evenodd" clip-rule="evenodd" d="M2.60273 17.6182C2.60273 18.3939 3.20378 19.0227 3.9452 19.0227H20.0549C20.7963 19.0227 21.3974 18.3939 21.3974 17.6182V6.38195C21.3974 5.60625 20.7963 4.97742 20.0549 4.97742L3.9452 4.97742C3.20378 4.97742 2.60273 5.60625 2.60273 6.38195L2.60273 17.6182ZM3.9452 20.4272C2.46235 20.4272 1.26025 19.1696 1.26025 17.6182L1.26025 6.38195C1.26025 4.83055 2.46235 3.57289 3.9452 3.57289H20.0549C21.5378 3.57289 22.7399 4.83055 22.7399 6.38195V17.6182C22.7399 19.1696 21.5378 20.4272 20.0549 20.4272H3.9452Z" fill="#697077" stroke="#697077" stroke-width="0.3" stroke-linecap="round" stroke-linejoin="round"/>
<path d="M6.88245 4.17871V20.0021" stroke="#697077" stroke-width="1.5"/>
</svg>
