<svg width="34" height="34" viewBox="0 0 34 34" fill="none" xmlns="http://www.w3.org/2000/svg">
<path fill-rule="evenodd" clip-rule="evenodd" d="M27.4212 17.1623C26.8048 17.7786 25.8055 17.7786 25.1891 17.1623L16.8353 8.80843L8.48146 17.1623C7.8651 17.7786 6.86576 17.7786 6.2494 17.1623C5.63303 16.5459 5.63303 15.5466 6.2494 14.9302L15.7193 5.46032C16.3356 4.84396 17.335 4.84396 17.9513 5.46032L27.4212 14.9302C28.0376 15.5466 28.0376 16.5459 27.4212 17.1623Z" fill="white"/>
<path fill-rule="evenodd" clip-rule="evenodd" d="M16.8353 6.31348C17.707 6.31348 18.4136 7.02011 18.4136 7.89179L18.4136 27.0946C18.4136 27.9663 17.707 28.6729 16.8353 28.6729C15.9636 28.6729 15.257 27.9663 15.257 27.0946L15.257 7.89179C15.257 7.02011 15.9636 6.31348 16.8353 6.31348Z" fill="white"/>
</svg>
