<svg width="227" height="197" viewBox="0 0 227 197" fill="none" xmlns="http://www.w3.org/2000/svg">
<path d="M92.8748 0C94.7703 0.000206203 96.3074 1.53699 96.3074 3.43262V12.9355C96.3072 14.831 94.7702 16.368 92.8748 16.3682H91.5056V80.3086L136.439 174.052C141.536 184.685 133.786 196.994 121.995 196.994H16.0378C4.24651 196.994 -3.50324 184.685 1.59351 174.052L46.5271 80.3086V16.3682H45.158C43.2623 16.3682 41.7256 14.8311 41.7253 12.9355V3.43262C41.7253 1.53686 43.2622 0 45.158 0H92.8748Z" fill="white"/>
<mask id="mask0_221_1357" style="mask-type:alpha" maskUnits="userSpaceOnUse" x="0" y="54" width="139" height="143">
<path d="M54.5715 63.5268C60.384 51.4006 77.6488 51.4006 83.4614 63.5268L136.439 174.052C141.536 184.685 133.786 196.994 121.995 196.994H16.0383C4.24679 196.994 -3.50338 184.685 1.59342 174.052L54.5715 63.5268Z" fill="white"/>
</mask>
<g mask="url(#mask0_221_1357)">
<rect x="-4.03516" y="93.834" width="146.103" height="113.246" fill="url(#paint0_linear_221_1357)"/>
</g>
<mask id="path-4-inside-1_221_1357" fill="white">
<path d="M189.998 66.7622C209.961 66.7624 226.145 82.9457 226.145 102.909C226.145 122.872 209.961 139.055 189.998 139.055H163.142L154.975 153.202C153.456 155.832 149.659 155.832 148.14 153.202L139.973 139.055H113.116C93.1531 139.055 76.9698 122.872 76.9698 102.909C76.97 82.9456 93.1532 66.7623 113.116 66.7622H189.998Z"/>
</mask>
<path d="M189.998 66.7622C209.961 66.7624 226.145 82.9457 226.145 102.909C226.145 122.872 209.961 139.055 189.998 139.055H163.142L154.975 153.202C153.456 155.832 149.659 155.832 148.14 153.202L139.973 139.055H113.116C93.1531 139.055 76.9698 122.872 76.9698 102.909C76.97 82.9456 93.1532 66.7623 113.116 66.7622H189.998Z" fill="white"/>
<path d="M189.998 66.7622C209.961 66.7624 226.145 82.9457 226.145 102.909C226.145 122.872 209.961 139.055 189.998 139.055H163.142L154.975 153.202C153.456 155.832 149.659 155.832 148.14 153.202L139.973 139.055H113.116C93.1531 139.055 76.9698 122.872 76.9698 102.909C76.97 82.9456 93.1532 66.7623 113.116 66.7622H189.998Z" fill="url(#paint1_linear_221_1357)" fill-opacity="0.2"/>
<path d="M189.998 66.7622L189.998 65.9041H189.998V66.7622ZM226.145 102.909H227.003V102.909L226.145 102.909ZM189.998 139.055V139.913H189.998L189.998 139.055ZM163.142 139.055V138.197H162.646L162.399 138.626L163.142 139.055ZM154.975 153.202L155.718 153.631L155.718 153.631L154.975 153.202ZM148.14 153.202L147.397 153.631L147.397 153.631L148.14 153.202ZM139.973 139.055L140.716 138.626L140.468 138.197H139.973V139.055ZM113.116 139.055V139.913V139.913V139.055ZM76.9698 102.909L76.1117 102.909V102.909H76.9698ZM113.116 66.7622V65.9041H113.116L113.116 66.7622ZM189.998 66.7622L189.998 67.6203C209.487 67.6205 225.286 83.4196 225.287 102.909L226.145 102.909L227.003 102.909C227.003 82.4717 210.435 65.9043 189.998 65.9041L189.998 66.7622ZM226.145 102.909H225.287C225.287 122.398 209.487 138.197 189.998 138.197L189.998 139.055L189.998 139.913C210.435 139.913 227.003 123.346 227.003 102.909H226.145ZM189.998 139.055V138.197H163.142V139.055V139.913H189.998V139.055ZM163.142 139.055L162.399 138.626L154.232 152.773L154.975 153.202L155.718 153.631L163.885 139.484L163.142 139.055ZM154.975 153.202L154.232 152.773C153.043 154.831 150.072 154.831 148.883 152.773L148.14 153.202L147.397 153.631C149.246 156.834 153.869 156.834 155.718 153.631L154.975 153.202ZM148.14 153.202L148.883 152.773L140.716 138.626L139.973 139.055L139.23 139.484L147.397 153.631L148.14 153.202ZM139.973 139.055V138.197H113.116V139.055V139.913H139.973V139.055ZM113.116 139.055V138.197C93.627 138.197 77.828 122.398 77.828 102.909H76.9698H76.1117C76.1117 123.346 92.6792 139.913 113.116 139.913V139.055ZM76.9698 102.909L77.828 102.909C77.8281 83.4195 93.6272 67.6204 113.116 67.6203L113.116 66.7622L113.116 65.9041C92.6793 65.9041 76.1119 82.4717 76.1117 102.909L76.9698 102.909ZM113.116 66.7622V67.6203H189.998V66.7622V65.9041H113.116V66.7622Z" fill="url(#paint2_linear_221_1357)" mask="url(#path-4-inside-1_221_1357)"/>
<circle cx="151.557" cy="101.162" r="7.32728" fill="#B3DAFF"/>
<circle cx="123.004" cy="101.162" r="7.32728" fill="#B3DAFF"/>
<circle cx="180.11" cy="101.162" r="7.32728" fill="#B3DAFF"/>
<path d="M46.5488 24.1538H66.8744" stroke="#E2E9F2" stroke-width="2.86047"/>
<path d="M46.5488 39.5425H57.7362" stroke="#E2E9F2" stroke-width="2.86047"/>
<path d="M46.5488 54.3608H57.7362" stroke="#E2E9F2" stroke-width="2.86047"/>
<defs>
<linearGradient id="paint0_linear_221_1357" x1="168.469" y1="93.834" x2="-55.0606" y2="121.929" gradientUnits="userSpaceOnUse">
<stop stop-color="#BDF3FF"/>
<stop offset="0.384615" stop-color="#92CAFF"/>
<stop offset="1" stop-color="#F0F8FF"/>
</linearGradient>
<linearGradient id="paint1_linear_221_1357" x1="151.557" y1="167.126" x2="81.6113" y2="61.9581" gradientUnits="userSpaceOnUse">
<stop stop-color="#A2D3FF"/>
<stop offset="0.278846" stop-color="white" stop-opacity="0"/>
<stop offset="1" stop-color="#1893FF"/>
</linearGradient>
<linearGradient id="paint2_linear_221_1357" x1="151.557" y1="66.7622" x2="151.557" y2="155.175" gradientUnits="userSpaceOnUse">
<stop stop-color="white"/>
<stop offset="1" stop-color="#8BC7FF"/>
</linearGradient>
</defs>
</svg>
